<svg xmlns="http://www.w3.org/2000/svg" aria-hidden="true" style="position:absolute;width:0;height:0;overflow:hidden">
  <defs>
    <symbol id="icon-home-solid" viewBox="0 0 16 16">
      <path d="M7.533 2.2c0.125-0.122 0.292-0.191 0.467-0.191s0.342 0.068 0.467 0.191l5.333 5.333c0.096 0.128 0.143 0.287 0.132 0.447s-0.080 0.311-0.194 0.424c-0.113 0.113-0.264 0.182-0.424 0.194s-0.319-0.035-0.447-0.132l-0.2-0.2v4.4c0 0.354-0.14 0.693-0.39 0.943s-0.589 0.39-0.943 0.39h-2c-0.177 0-0.346-0.070-0.471-0.195s-0.195-0.295-0.195-0.471v-2h-1.333v2c0 0.4-0.267 0.667-0.667 0.667h-2c-0.354 0-0.693-0.14-0.943-0.39s-0.391-0.589-0.391-0.943v-4.4l-0.2 0.2c-0.128 0.096-0.287 0.143-0.447 0.132s-0.311-0.080-0.424-0.194c-0.113-0.114-0.182-0.264-0.194-0.424s0.035-0.319 0.132-0.447l5.333-5.333z"></path>
    </symbol>
    <symbol id="icon-lizard" viewBox="0 0 15 16">
      <path d="M12.099 0.414c-0.14 0.065-0.175 0.114-0.184 0.254-0.008 0.1 0.016 0.204 0.049 0.225 0.055 0.035 0.112-0.068 0.155-0.282 0.018-0.084 0.042-0.171 0.055-0.194s0.020-0.041 0.015-0.041c-0.005 0-0.045 0.018-0.091 0.039z"></path>
      <path d="M11.574 0.448l-0.053 0.046-0.003 0.229c-0.003 0.243 0.003 0.266 0.054 0.239 0.039-0.021 0.052-0.104 0.043-0.292-0.006-0.12-0.004-0.188 0.006-0.216 0.008-0.023 0.013-0.044 0.010-0.046s-0.029 0.016-0.058 0.041z"></path>
      <path d="M12.614 0.698c-0.016 0.012-0.102 0.064-0.19 0.114-0.089 0.050-0.164 0.096-0.167 0.103-0.014 0.021 0.019 0.061 0.052 0.061 0.049 0 0.112-0.031 0.242-0.121 0.068-0.045 0.145-0.090 0.172-0.098 0.028-0.009 0.049-0.020 0.048-0.025-0.001-0.007-0.11-0.056-0.125-0.056-0.001 0-0.015 0.010-0.031 0.022z"></path>
      <path d="M11.669 1.010c-0.142 0.038-0.285 0.14-0.378 0.274-0.055 0.080-0.044 0.179 0.025 0.22 0.073 0.042 0.112 0.024 0.278-0.136 0.052-0.050 0.111-0.097 0.13-0.104 0.067-0.025 0.149-0.016 0.217 0.022 0.081 0.046 0.104 0.070 0.156 0.15 0.037 0.055 0.043 0.076 0.043 0.143 0 0.125-0.052 0.215-0.151 0.26-0.055 0.025-0.136 0.031-0.166 0.012-0.023-0.015-0.039-0.111-0.025-0.149 0.006-0.016 0.021-0.032 0.034-0.035 0.028-0.008 0.082-0.090 0.073-0.111-0.004-0.010-0.030-0.032-0.059-0.052-0.042-0.028-0.064-0.034-0.115-0.031-0.035 0.001-0.069 0.006-0.078 0.011-0.008 0.005-0.021 0.010-0.029 0.011-0.009 0.001-0.024 0.011-0.034 0.021-0.010 0.009-0.037 0.024-0.060 0.032-0.12 0.044-0.278 0.156-0.403 0.287-0.145 0.151-0.286 0.381-0.394 0.644-0.023 0.055-0.050 0.121-0.062 0.146-0.010 0.025-0.021 0.059-0.025 0.075-0.016 0.087-0.084 0.199-0.121 0.199-0.034 0-0.039-0.014-0.050-0.144-0.005-0.065-0.014-0.124-0.019-0.13-0.047-0.076-0.208 0.163-0.256 0.381-0.037 0.167 0.011 0.291 0.145 0.375 0.038 0.025 0.076 0.046 0.084 0.049 0.008 0.001 0.031 0.010 0.052 0.017 0.117 0.049 0.433 0.099 0.519 0.083l0.040-0.007-0.070-0.103c-0.063-0.090-0.102-0.166-0.171-0.321-0.070-0.161-0.057-0.426 0.035-0.632 0.106-0.237 0.36-0.494 0.551-0.555 0.064-0.020 0.108-0.010 0.196 0.044 0.039 0.024 0.091 0.050 0.115 0.056 0.199 0.056 0.471-0.077 0.599-0.296 0.103-0.174 0.067-0.396-0.093-0.567-0.131-0.141-0.326-0.191-0.533-0.139z"></path>
      <path d="M12.498 1.202c-0.025 0.008-0.053 0.024-0.060 0.036-0.025 0.049 0.028 0.095 0.151 0.13 0.050 0.015 0.088 0.022 0.244 0.049 0.019 0.004 0.054 0.018 0.078 0.032 0.052 0.032 0.054 0.025 0.014-0.065-0.064-0.145-0.143-0.198-0.291-0.196-0.048 0.001-0.11 0.008-0.136 0.014z"></path>
      <path d="M11.092 1.646c-0.125 0.083-0.336 0.307-0.467 0.497-0.067 0.096-0.133 0.197-0.151 0.225l-0.030 0.050 0.031-0.020c0.089-0.056 0.087-0.056 0.11-0.034 0.019 0.020 0.019 0.033-0.005 0.2-0.023 0.156-0.023 0.239 0 0.203 0.006-0.013 0.045-0.154 0.054-0.201 0.011-0.058 0.086-0.251 0.133-0.348 0.055-0.109 0.174-0.286 0.248-0.371 0.047-0.054 0.165-0.225 0.165-0.24s-0.021-0.006-0.088 0.039z"></path>
      <path d="M11.865 2.069c-0.019 0.047 0.064 0.185 0.141 0.232 0.039 0.024 0.057 0.026 0.132 0.020 0.048-0.004 0.096-0.013 0.107-0.019 0.018-0.010 0.015-0.014-0.016-0.025-0.021-0.006-0.074-0.046-0.118-0.087-0.139-0.127-0.227-0.171-0.245-0.121z"></path>
      <path d="M13.591 2.212c-0.062 0.006-0.089 0.019-0.154 0.064-0.043 0.030-0.084 0.071-0.093 0.090-0.008 0.019-0.026 0.044-0.042 0.054-0.026 0.019-0.026 0.019-0.003 0.036 0.014 0.010 0.045 0.019 0.069 0.018 0.053-0.001 0.169-0.020 0.137-0.022-0.028-0.001-0.111-0.041-0.111-0.051 0-0.027 0.067-0.099 0.12-0.127 0.112-0.061 0.253-0.036 0.308 0.055 0.034 0.056 0.016 0.072-0.083 0.072-0.048 0-0.081 0.005-0.081 0.013 0 0.018 0.098 0.061 0.137 0.063 0.016 0 0.028 0.004 0.023 0.007-0.004 0.004-0.077 0.007-0.162 0.006-0.261-0.004-0.579 0.070-0.778 0.179-0.018 0.010-0.079 0.041-0.139 0.071-0.171 0.085-0.303 0.175-0.3 0.205 0.006 0.044 0.055 0.036 0.159-0.024 0.084-0.049 0.271-0.131 0.311-0.138 0.006-0.001 0.020-0.006 0.029-0.011 0.008-0.006 0.015-0.007 0.015-0.005 0 0.004 0.049-0.007 0.111-0.024 0.385-0.107 0.791-0.084 1.104 0.065 0.074 0.035 0.142 0.086 0.13 0.099-0.005 0.005-0.058-0.002-0.12-0.016-0.176-0.041-0.346-0.058-0.583-0.056-0.32 0-0.544 0.042-0.737 0.138-0.21 0.105-0.32 0.217-0.403 0.417-0.050 0.119-0.058 0.283-0.019 0.389 0.035 0.095 0.079 0.163 0.154 0.231 0.218 0.197 0.609 0.223 0.784 0.048 0.072-0.071 0.108-0.169 0.116-0.314 0.009-0.149-0.014-0.227-0.087-0.306-0.076-0.083-0.122-0.103-0.217-0.096-0.144 0.009-0.208 0.089-0.209 0.26 0 0.092-0.024 0.16-0.050 0.144-0.006-0.004-0.014-0.001-0.018 0.005-0.014 0.021-0.072 0.005-0.11-0.031-0.097-0.091-0.072-0.26 0.053-0.373 0.13-0.116 0.325-0.169 0.467-0.127 0.083 0.024 0.188 0.098 0.234 0.165 0.078 0.115 0.098 0.296 0.053 0.475-0.044 0.171-0.159 0.318-0.31 0.395-0.043 0.023-0.077 0.045-0.073 0.049 0.003 0.005 0.047 0.013 0.097 0.017 0.217 0.020 0.456-0.066 0.553-0.199 0.048-0.066 0.043-0.109-0.040-0.277-0.081-0.166-0.104-0.252-0.098-0.344 0.006-0.094 0.057-0.175 0.149-0.239 0.11-0.076 0.146-0.089 0.258-0.090 0.084 0 0.112 0.005 0.172 0.034 0.082 0.040 0.164 0.116 0.203 0.189 0.050 0.099 0.024 0.256-0.062 0.356-0.059 0.067-0.102 0.089-0.185 0.089-0.088 0-0.125-0.026-0.127-0.092-0.001-0.049-0.001-0.049 0.084-0.083 0.102-0.041 0.113-0.051 0.141-0.107 0.052-0.109-0.057-0.229-0.208-0.23-0.069 0-0.171 0.055-0.219 0.115-0.089 0.118-0.115 0.282-0.060 0.401 0.068 0.15 0.164 0.216 0.298 0.206 0.146-0.013 0.233-0.069 0.386-0.25 0.176-0.208 0.315-0.436 0.369-0.606 0.018-0.056 0.038-0.106 0.044-0.11s0.003-0.023-0.008-0.041c-0.009-0.019-0.018-0.040-0.018-0.047 0-0.014-0.016-0.030-0.121-0.118-0.14-0.118-0.49-0.276-0.754-0.344-0.062-0.016-0.098-0.030-0.079-0.030 0.101-0.004 0.097-0.044-0.015-0.152-0.123-0.119-0.23-0.155-0.397-0.136z"></path>
      <path d="M10.225 2.659c-0.11 0.156-0.185 0.51-0.155 0.735 0.028 0.199 0.176 0.563 0.313 0.766 0.074 0.11 0.074 0.121-0.001 0.072-0.084-0.056-0.159-0.075-0.247-0.064-0.137 0.016-0.237 0.077-0.285 0.173-0.018 0.035-0.031 0.081-0.031 0.103 0 0.069 0.038 0.169 0.081 0.216 0.039 0.041 0.049 0.045 0.122 0.049 0.044 0.003 0.088 0 0.098-0.007 0.011-0.006 0.020-0.048 0.026-0.109 0.009-0.107 0.024-0.147 0.064-0.167 0.082-0.044 0.234 0.109 0.258 0.26 0.008 0.046 0.004 0.053-0.053 0.111-0.038 0.039-0.082 0.070-0.112 0.079-0.065 0.021-0.214 0.019-0.281-0.005-0.17-0.060-0.279-0.213-0.279-0.388 0-0.1 0.024-0.18 0.11-0.361 0.060-0.129 0.068-0.151 0.052-0.166-0.015-0.015-0.026-0.015-0.086 0.002-0.052 0.015-0.084 0.035-0.128 0.081-0.062 0.063-0.149 0.216-0.149 0.263 0 0.014-0.008 0.044-0.018 0.065-0.010 0.022-0.026 0.067-0.038 0.103-0.033 0.107-0.149 0.574-0.149 0.604 0 0.015-0.005 0.031-0.011 0.035s-0.011 0.021-0.011 0.040c0 0.051-0.068 0.184-0.135 0.26-0.064 0.076-0.399 0.371-0.427 0.378-0.010 0.003-0.018 0.009-0.018 0.015 0 0.014-0.637 0.487-0.656 0.487-0.029 0-0.575 0.42-0.672 0.519-0.072 0.071-0.091 0.144-0.045 0.169 0.067 0.035 0.282-0.005 0.42-0.077 0.054-0.029 0.087-0.059 0.127-0.115 0.068-0.095 0.223-0.241 0.267-0.253 0.018-0.005 0.038-0.003 0.045 0.005 0.016 0.016 0.010 0.046-0.044 0.221-0.064 0.207-0.072 0.417-0.026 0.836 0.033 0.32 0.025 0.364-0.086 0.474-0.122 0.12-0.353 0.251-0.441 0.249-0.019 0-0.038 0.005-0.042 0.011-0.010 0.016-0.103 0.014-0.113-0.002-0.005-0.008-0.016-0.010-0.025-0.006-0.025 0.009-0.116-0.060-0.14-0.107-0.054-0.102 0.001-0.261 0.111-0.317 0.072-0.036 0.149-0.011 0.149 0.049 0 0.014-0.023 0.054-0.052 0.086-0.062 0.074-0.055 0.089 0.049 0.111 0.121 0.025 0.253-0.020 0.303-0.104 0.086-0.139-0.001-0.345-0.179-0.424-0.089-0.040-0.24-0.041-0.327-0.001-0.151 0.067-0.3 0.249-0.32 0.39-0.004 0.024-0.010 0.047-0.015 0.054-0.013 0.012 0.015 0.144 0.040 0.193 0.049 0.092 0.219 0.205 0.339 0.223 0.126 0.019 0.325-0.056 0.499-0.189 0.052-0.039 0.112-0.078 0.136-0.088 0.039-0.016 0.044-0.016 0.052 0.003 0.009 0.025-0.003 0.066-0.063 0.231-0.101 0.27-0.112 0.496-0.026 0.509 0.043 0.006 0.16-0.044 0.303-0.131 0.076-0.045 0.139-0.085 0.142-0.089 0.004-0.005 0.149-0.103 0.321-0.217 0.345-0.229 0.478-0.3 0.645-0.34 0.059-0.014 0.111-0.033 0.113-0.040 0.010-0.029-0.282-0.074-0.412-0.064-0.258 0.021-0.604 0.188-0.604 0.293 0 0.031 0.003 0.031 0.054 0.025 0.029-0.004 0.11-0.030 0.179-0.057 0.21-0.081 0.217-0.081 0.13 0.019-0.126 0.141-0.332 0.255-0.54 0.299-0.112 0.024-0.162 0.024-0.196 0-0.024-0.016-0.026-0.025-0.015-0.053 0.031-0.084 0.242-0.28 0.422-0.395s0.317-0.162 0.608-0.21c0.293-0.048 0.533-0.020 0.676 0.077 0.125 0.084 0.213 0.239 0.213 0.374 0 0.069-0.006 0.090-0.039 0.144-0.052 0.084-0.133 0.134-0.217 0.134-0.132 0-0.253-0.11-0.214-0.196 0.018-0.040 0.049-0.040 0.097 0.001 0.115 0.095 0.278 0.044 0.278-0.089 0-0.056-0.053-0.157-0.105-0.203-0.094-0.082-0.189-0.080-0.312 0.008-0.135 0.096-0.184 0.219-0.146 0.371 0.029 0.116 0.057 0.169 0.179 0.341 0.121 0.171 0.16 0.248 0.196 0.384 0.055 0.213 0.044 0.363-0.047 0.598-0.048 0.123-0.052 0.159-0.023 0.188 0.037 0.036 0.12 0.023 0.452-0.075 0.147-0.044 0.178-0.049 0.308-0.049 0.125 0 0.154 0.004 0.208 0.029 0.076 0.035 0.115 0.069 0.146 0.13 0.028 0.055 0.030 0.096 0.006 0.151-0.021 0.051-0.091 0.121-0.12 0.121-0.011 0-0.052-0.025-0.088-0.056s-0.070-0.056-0.076-0.056-0.039 0.019-0.076 0.040c-0.084 0.051-0.132 0.13-0.121 0.197 0.013 0.072 0.068 0.172 0.122 0.217 0.154 0.13 0.431 0.1 0.575-0.063 0.078-0.089 0.152-0.304 0.152-0.443 0-0.059-0.033-0.18-0.067-0.25-0.064-0.13-0.259-0.277-0.423-0.319-0.152-0.040-0.307 0.014-0.609 0.21-0.171 0.11-0.18 0.104-0.126-0.091 0.010-0.037 0.023-0.078 0.026-0.088s0.008-0.027 0.010-0.037c0.002-0.010 0.039-0.115 0.081-0.231 0.087-0.24 0.169-0.543 0.196-0.719 0.058-0.381-0.029-0.691-0.227-0.806-0.181-0.105-0.399-0.111-0.901-0.025-0.308 0.053-0.346 0.054-0.427 0.013-0.303-0.152-0.4-0.796-0.214-1.425 0.043-0.143 0.172-0.429 0.248-0.544 0.088-0.138 0.279-0.327 0.418-0.416 0.108-0.069 0.225-0.133 0.263-0.14 0.011-0.003 0.077-0.025 0.146-0.049 0.35-0.12 0.772-0.12 1.146 0.003 0.123 0.040 0.264 0.131 0.319 0.206 0.064 0.090 0.183 0.12 0.288 0.071 0.203-0.091 0.385-0.296 0.403-0.455 0.006-0.048 0.003-0.056-0.028-0.080-0.077-0.060-0.225-0.020-0.359 0.098-0.031 0.027-0.067 0.050-0.078 0.050-0.034 0-0.060-0.050-0.060-0.117 0-0.055 0.005-0.066 0.049-0.107 0.062-0.058 0.142-0.088 0.266-0.096 0.086-0.005 0.101-0.003 0.162 0.030 0.083 0.043 0.115 0.094 0.115 0.186 0 0.149-0.069 0.264-0.301 0.499-0.188 0.19-0.232 0.246-0.297 0.385-0.072 0.147-0.108 0.313-0.116 0.516-0.006 0.147-0.004 0.188 0.015 0.242 0.069 0.207 0.312 0.273 0.567 0.15 0.031-0.015 0.073-0.045 0.094-0.066 0.162-0.173 0.157-0.169 0.381-0.276 0.12-0.058 0.243-0.114 0.277-0.126 0.072-0.026 0.065-0.039-0.040-0.086-0.162-0.071-0.454-0.122-0.551-0.096-0.060 0.016-0.068 0.039-0.034 0.087 0.028 0.037 0.005 0.055-0.058 0.045-0.024-0.005-0.052-0.009-0.060-0.009-0.009-0.001-0.040-0.024-0.070-0.050-0.065-0.056-0.099-0.131-0.088-0.194 0.009-0.044 0.089-0.173 0.244-0.391 0.108-0.154 0.149-0.224 0.22-0.4 0.139-0.333 0.166-0.466 0.145-0.692-0.030-0.306-0.136-0.567-0.296-0.726-0.078-0.079-0.204-0.16-0.267-0.175-0.013-0.004-0.059-0.015-0.104-0.026-0.151-0.038-0.315 0.002-0.395 0.098-0.045 0.051-0.083 0.161-0.083 0.237 0 0.065 0.034 0.147 0.079 0.195 0.044 0.046 0.136 0.098 0.185 0.104 0.029 0.005 0.031 0.001 0.029-0.039-0.011-0.174-0.009-0.22 0.011-0.258 0.025-0.046 0.101-0.085 0.143-0.075 0.050 0.013 0.116 0.081 0.157 0.165 0.033 0.065 0.040 0.099 0.047 0.19 0.008 0.139-0.008 0.188-0.084 0.269-0.196 0.211-0.418 0.241-0.71 0.096-0.043-0.021-0.096-0.054-0.117-0.072-0.033-0.027-0.203-0.26-0.251-0.34-0.006-0.010 0.040 0.029 0.103 0.088 0.161 0.151 0.312 0.234 0.483 0.266 0.184 0.034 0.392-0.064 0.47-0.219 0.037-0.074 0.042-0.125 0.014-0.147-0.025-0.020-0.069 0.008-0.106 0.067-0.030 0.047-0.118 0.111-0.186 0.134-0.024 0.008-0.082 0.011-0.13 0.009-0.073-0.004-0.094-0.011-0.156-0.051-0.082-0.054-0.176-0.174-0.198-0.25-0.016-0.061-0.008-0.143 0.021-0.2 0.011-0.021 0.057-0.087 0.099-0.146 0.188-0.254 0.176-0.272-0.132-0.23-0.164 0.022-0.322 0.019-0.393-0.011-0.059-0.025-0.146-0.112-0.175-0.177-0.072-0.163-0.059-0.408 0.038-0.701 0.019-0.058 0.033-0.105 0.031-0.105-0.003 0-0.014 0.015-0.028 0.034z"></path>
      <path d="M12.277 3.095c-0.108 0.061-0.227 0.181-0.285 0.291-0.025 0.049-0.043 0.089-0.038 0.089 0.004 0 0.003 0.007-0.004 0.015-0.016 0.024-0.023 0.079-0.023 0.21 0 0.185 0.016 0.259 0.087 0.399 0.071 0.138 0.334 0.367 0.524 0.456 0.065 0.031 0.098 0.039 0.164 0.039 0.094 0 0.184-0.030 0.228-0.076 0.037-0.039 0.043-0.13 0.010-0.161-0.010-0.010-0.067-0.027-0.126-0.036-0.131-0.021-0.155-0.031-0.264-0.101-0.172-0.111-0.351-0.316-0.404-0.462-0.025-0.071-0.030-0.235-0.009-0.31 0.019-0.069 0.117-0.23 0.183-0.299 0.050-0.053 0.070-0.098 0.047-0.098-0.006 0-0.045 0.020-0.089 0.045z"></path>
      <path d="M11.756 3.413c-0.052 0.015-0.161 0.092-0.234 0.165l-0.068 0.066 0.082 0.009c0.045 0.004 0.11 0.020 0.142 0.035 0.059 0.025 0.156 0.105 0.156 0.129 0 0.006 0.009 0.019 0.019 0.029 0.024 0.024 0.024 0.025-0.008-0.057-0.037-0.096-0.045-0.231-0.020-0.306 0.029-0.081 0.016-0.095-0.069-0.069z"></path>
      <path d="M9.543 4.088c-0.259 0.129-0.404 0.211-0.604 0.345-0.179 0.119-0.235 0.162-0.225 0.173 0.004 0.004 0.097-0.036 0.208-0.087 0.218-0.104 0.334-0.146 0.383-0.14 0.068 0.007 0.026 0.129-0.11 0.31-0.096 0.127-0.33 0.356-0.441 0.429-0.174 0.115-0.397 0.196-0.535 0.196-0.054 0-0.060-0.003-0.060-0.029 0.001-0.082 0.223-0.231 0.441-0.296 0.186-0.056 0.308-0.14 0.368-0.254 0.034-0.069 0.024-0.084-0.057-0.084-0.213 0-0.466 0.141-0.682 0.383-0.38 0.424-0.624 0.872-0.76 1.399-0.040 0.151-0.059 0.269-0.045 0.269 0.005 0 0.053-0.041 0.106-0.091 0.14-0.131 0.257-0.215 0.392-0.28 0.139-0.066 0.205-0.134 0.267-0.264 0.068-0.146 0.076-0.374 0.015-0.434-0.043-0.041-0.195 0.035-0.243 0.122-0.039 0.069-0.031 0.090 0.042 0.115 0.146 0.050 0.147 0.179 0.004 0.323-0.068 0.066-0.169 0.121-0.225 0.121-0.047 0-0.106-0.061-0.115-0.121-0.025-0.145 0.004-0.251 0.104-0.403 0.082-0.12 0.152-0.191 0.244-0.245 0.058-0.034 0.064-0.035 0.186-0.027 0.068 0.005 0.142 0.004 0.164 0 0.040-0.008 0.048-0.014 0.282-0.256 0.154-0.156 0.301-0.265 0.473-0.345l0.099-0.046 0.098-0.2c0.054-0.11 0.115-0.236 0.133-0.281 0.020-0.045 0.042-0.084 0.047-0.088 0.016-0.011 0.074-0.178 0.071-0.2-0.003-0.015-0.010-0.019-0.023-0.013z"></path>
      <path d="M12.222 4.586c-0.034 0.030-0.040 0.044-0.039 0.088 0.003 0.065 0.020 0.096 0.071 0.126 0.069 0.043 0.137 0.031 0.166-0.026 0.040-0.076 0.014-0.169-0.058-0.206-0.053-0.026-0.094-0.021-0.14 0.019z"></path>
      <path d="M9.046 5.085c-0.281 0.145-0.539 0.407-0.686 0.694-0.034 0.069-0.063 0.126-0.063 0.129 0 0.006 0.065-0.034 0.076-0.045 0.004-0.005 0.065-0.047 0.139-0.097 0.16-0.107 0.347-0.27 0.441-0.383 0.089-0.109 0.223-0.347 0.191-0.344-0.005 0-0.049 0.021-0.097 0.046z"></path>
      <path d="M13.301 5.195c-0.099 0.051-0.218 0.213-0.203 0.275 0.018 0.069 0.132 0.022 0.331-0.135 0.043-0.034 0.103-0.070 0.135-0.080 0.031-0.011 0.058-0.023 0.058-0.025s-0.039-0.015-0.087-0.030c-0.102-0.030-0.183-0.032-0.234-0.005z"></path>
      <path d="M9.921 5.401c-0.117 0.010-0.288 0.051-0.404 0.1-0.106 0.043-0.276 0.134-0.276 0.147 0 0.005-0.013 0.016-0.028 0.023-0.092 0.043-0.36 0.319-0.472 0.485-0.117 0.175-0.203 0.465-0.214 0.731-0.011 0.259 0.020 0.447 0.111 0.684 0.078 0.199 0.169 0.295 0.251 0.264 0.048-0.018 0.113-0.086 0.113-0.117 0-0.016 0.005-0.031 0.010-0.035 0.005-0.003 0.005-0.059-0.001-0.122-0.005-0.064-0.008-0.229-0.005-0.366 0.006-0.276 0.021-0.359 0.103-0.548 0.059-0.139 0.115-0.224 0.205-0.322 0.103-0.111 0.331-0.263 0.419-0.279 0.016-0.003 0.064-0.015 0.106-0.027 0.092-0.029 0.344-0.032 0.442-0.008 0.037 0.010 0.076 0.019 0.088 0.021 0.014 0.003 0.024 0.005 0.024 0.006s0.009 0.004 0.019 0.006c0.010 0.003 0.070 0.022 0.132 0.045 0.185 0.065 0.296 0.049 0.407-0.061 0.14-0.139 0.108-0.3-0.082-0.415-0.261-0.156-0.624-0.237-0.948-0.211z"></path>
      <path d="M13.742 5.442c-0.072 0.023-0.103 0.041-0.165 0.098-0.054 0.050-0.072 0.099-0.042 0.116 0.040 0.026 0.213 0.001 0.351-0.051 0.031-0.011 0.091-0.024 0.131-0.029l0.074-0.008-0.077-0.056c-0.115-0.082-0.18-0.099-0.273-0.070z"></path>
      <path d="M12.84 5.549c-0.039 0.013-0.092 0.037-0.116 0.056-0.052 0.039-0.11 0.145-0.11 0.197 0 0.050 0.038 0.119 0.112 0.205 0.035 0.040 0.073 0.093 0.084 0.116 0.020 0.040 0.019 0.044-0.003 0.060-0.059 0.044-0.145 0.015-0.38-0.125-0.32-0.191-0.467-0.22-0.631-0.125-0.145 0.084-0.211 0.188-0.172 0.265 0.035 0.067 0.082 0.059 0.161-0.030 0.020-0.024 0.062-0.055 0.093-0.070 0.11-0.053 0.296-0.016 0.584 0.115 0.094 0.043 0.139 0.055 0.206 0.059 0.11 0.008 0.201-0.014 0.276-0.060 0.083-0.053 0.088-0.086 0.024-0.155-0.088-0.095-0.12-0.152-0.121-0.22-0.001-0.072 0.030-0.114 0.104-0.136 0.142-0.041 0.243 0.024 0.28 0.181 0.026 0.115 0.010 0.15-0.2 0.405-0.065 0.080-0.077 0.117-0.045 0.151 0.043 0.048 0.118 0.077 0.2 0.077 0.102 0.001 0.206-0.054 0.307-0.161 0.093-0.098 0.107-0.14 0.098-0.279-0.009-0.145-0.063-0.251-0.183-0.366-0.169-0.162-0.38-0.221-0.57-0.161z"></path>
      <path d="M13.864 5.906c-0.165 0.046-0.227 0.119-0.14 0.164 0.033 0.016 0.076 0.019 0.243 0.016 0.112-0.003 0.222 0.001 0.245 0.006l0.043 0.010-0.062-0.077c-0.094-0.12-0.195-0.156-0.33-0.119z"></path>
      <path d="M9.868 6.088c-0.169 0.043-0.395 0.171-0.51 0.29-0.062 0.064-0.127 0.181-0.161 0.289-0.037 0.115-0.043 0.281-0.014 0.418 0.034 0.16 0.045 0.164 0.096 0.029 0.057-0.16 0.091-0.216 0.176-0.303 0.121-0.121 0.219-0.16 0.536-0.216 0.232-0.041 0.317-0.070 0.38-0.13 0.086-0.081 0.098-0.138 0.053-0.226-0.074-0.145-0.317-0.211-0.556-0.15z"></path>
      <path d="M13.701 6.301c-0.045 0.045 0.016 0.14 0.178 0.274 0.054 0.044 0.112 0.105 0.131 0.136 0.031 0.054 0.034 0.055 0.042 0.026 0.005-0.018 0.009-0.071 0.010-0.119 0.001-0.145-0.052-0.224-0.19-0.287-0.089-0.040-0.15-0.051-0.17-0.030z"></path>
      <path d="M13.411 6.566c-0.029 0.034-0.042 0.151-0.033 0.303 0.005 0.1 0.003 0.163-0.006 0.186-0.008 0.020-0.011 0.039-0.008 0.043s0.039-0.019 0.078-0.049c0.102-0.077 0.133-0.14 0.126-0.257-0.006-0.116-0.060-0.233-0.111-0.239-0.018-0.003-0.039 0.004-0.047 0.014z"></path>
      <path d="M8.076 6.782c-0.011 0.018-0.019 0.034-0.016 0.037 0.002 0.003 0.015-0.013 0.028-0.032 0.026-0.046 0.019-0.050-0.011-0.005z"></path>
      <path d="M7.979 6.934c-0.127 0.165-0.349 0.341-0.428 0.341-0.049 0-0.098-0.027-0.133-0.074-0.037-0.049-0.063-0.049-0.112 0.001-0.097 0.103-0.117 0.261-0.042 0.329 0.024 0.021 0.025 0.021 0.052-0.013 0.052-0.065 0.123-0.106 0.184-0.106 0.082 0 0.132 0.029 0.228 0.13 0.019 0.020 0.048 0.051 0.067 0.069 0.018 0.017 0.065 0.075 0.108 0.126 0.175 0.214 0.186 0.205 0.147-0.119-0.010-0.090-0.019-0.197-0.019-0.24 0.001-0.043-0.004-0.080-0.010-0.084-0.016-0.011-0.018-0.319-0.001-0.339 0.008-0.010 0.013-0.032 0.010-0.050-0.004-0.032-0.005-0.031-0.050 0.027z"></path>
      <path d="M9.26 8.322c-0.004 0.004-0.020 0.009-0.035 0.011-0.029 0.005-0.136 0.053-0.147 0.066-0.004 0.004-0.034 0.026-0.069 0.050-0.112 0.075-0.235 0.18-0.46 0.393-0.365 0.348-0.475 0.425-0.606 0.425-0.091 0.001-0.147-0.039-0.193-0.135-0.047-0.097-0.057-0.159-0.058-0.327v-0.151l-0.055-0.060c-0.031-0.033-0.063-0.056-0.073-0.054-0.028 0.010-0.060 0.080-0.132 0.283-0.038 0.107-0.071 0.205-0.073 0.216-0.003 0.010-0.014 0.041-0.028 0.069l-0.023 0.049-0.155 0.036c-0.084 0.020-0.157 0.033-0.161 0.029-0.005-0.004 0.008-0.025 0.025-0.047 0.042-0.049 0.084-0.131 0.116-0.224 0.037-0.106 0.033-0.296-0.006-0.394-0.043-0.107-0.055-0.117-0.092-0.075-0.040 0.047-0.155 0.123-0.228 0.15-0.055 0.021-0.073 0.021-0.256 0.006-0.161-0.014-0.232-0.014-0.399-0.001-0.112 0.010-0.213 0.016-0.223 0.016-0.083 0-0.354 0.079-0.466 0.136-0.169 0.085-0.3 0.233-0.327 0.37-0.034 0.158 0.034 0.467 0.162 0.75 0.037 0.079 0.064 0.16 0.064 0.183 0 0.054-0.025 0.076-0.18 0.159-0.121 0.064-0.198 0.117-0.198 0.136 0 0.006 0.030 0.015 0.067 0.023 0.078 0.014 0.088 0.008-0.161 0.104-0.089 0.034-0.186 0.075-0.213 0.091-0.111 0.063-0.135 0.216-0.059 0.377 0.074 0.157 0.183 0.307 0.273 0.376l0.043 0.033 0.081-0.072c0.044-0.041 0.131-0.101 0.193-0.135 0.17-0.094 0.204-0.117 0.23-0.161 0.057-0.091 0.014-0.225-0.089-0.283-0.097-0.054-0.224-0.037-0.267 0.035-0.042 0.071-0.016 0.115 0.096 0.162 0.053 0.023 0.059 0.030 0.059 0.064 0 0.053-0.055 0.106-0.127 0.125-0.076 0.021-0.145-0.003-0.185-0.063-0.025-0.037-0.029-0.055-0.024-0.114 0.016-0.19 0.144-0.309 0.341-0.321 0.116-0.008 0.2 0.025 0.349 0.131 0.135 0.096 0.224 0.141 0.301 0.15 0.050 0.006 0.071 0.001 0.126-0.029 0.126-0.068 0.188-0.174 0.171-0.296-0.011-0.085-0.049-0.178-0.178-0.44-0.132-0.271-0.183-0.408-0.183-0.495 0-0.262 0.39-0.341 0.776-0.155 0.137 0.066 0.247 0.164 0.296 0.262 0.025 0.054 0.030 0.085 0.034 0.21 0.009 0.287-0.088 0.988-0.194 1.399-0.010 0.039-0.020 0.087-0.023 0.106-0.015 0.121-0.178 0.627-0.298 0.935-0.116 0.294-0.287 0.625-0.456 0.879-0.237 0.357-0.56 0.687-0.888 0.906-0.223 0.149-0.536 0.321-0.618 0.34-0.011 0.004-0.102 0.033-0.203 0.066-0.612 0.205-1.219 0.201-1.854-0.011-0.482-0.161-0.908-0.457-1.152-0.803-0.12-0.169-0.292-0.57-0.353-0.821-0.062-0.255-0.072-0.329-0.072-0.575 0-0.39 0.068-0.662 0.256-1.031 0.122-0.24 0.31-0.484 0.496-0.646 0.234-0.204 0.624-0.401 0.822-0.416 0.034-0.002 0.065-0.006 0.069-0.006 0.039-0.008 0.274 0.002 0.321 0.012 0.127 0.029 0.244 0.099 0.365 0.219 0.169 0.168 0.244 0.329 0.229 0.49-0.031 0.326-0.444 0.554-0.747 0.409-0.047-0.023-0.115-0.075-0.185-0.141-0.113-0.109-0.15-0.124-0.094-0.043 0.13 0.195 0.4 0.318 0.616 0.28 0.118-0.020 0.252-0.090 0.344-0.181 0.199-0.195 0.237-0.463 0.106-0.741-0.040-0.085-0.159-0.215-0.279-0.306-0.373-0.28-0.742-0.343-1.182-0.196-0.137 0.045-0.146 0.049-0.402 0.191-0.171 0.095-0.452 0.344-0.621 0.55-0.196 0.24-0.38 0.541-0.453 0.746-0.154 0.426-0.189 0.626-0.179 1.009 0.009 0.326 0.042 0.505 0.155 0.837 0.074 0.217 0.141 0.359 0.269 0.565 0.321 0.52 0.714 0.905 1.24 1.216 0.193 0.114 0.548 0.27 0.66 0.291 0.018 0.004 0.037 0.010 0.044 0.015 0.008 0.004 0.025 0.010 0.038 0.011 0.013 0.002 0.068 0.015 0.122 0.029 0.437 0.111 0.927 0.115 1.34 0.010 0.083-0.020 0.164-0.039 0.18-0.041s0.037-0.011 0.047-0.019c0.010-0.009 0.019-0.012 0.019-0.008 0 0.010 0.213-0.069 0.327-0.121 0.301-0.137 0.603-0.291 0.63-0.32 0.004-0.005 0.088-0.061 0.189-0.127 0.461-0.303 0.888-0.703 1.23-1.155 0.135-0.177 0.336-0.476 0.437-0.646 0.135-0.229 0.461-0.906 0.461-0.957 0-0.009 0.005-0.025 0.013-0.037 0.047-0.086 0.29-0.797 0.305-0.896 0.003-0.014 0.009-0.033 0.014-0.041 0.006-0.008 0.008-0.015 0.004-0.015-0.003 0 0.005-0.041 0.020-0.091 0.084-0.301 0.257-1.116 0.278-1.319 0.003-0.021 0.009-0.044 0.013-0.049 0.005-0.004 0.009-0.035 0.009-0.068s0.006-0.064 0.013-0.067c0.008-0.005 0.010-0.013 0.008-0.018-0.021-0.033 0.087-0.258 0.171-0.36 0.11-0.131 0.286-0.241 0.457-0.285 0.108-0.029 0.292-0.037 0.384-0.020 0.043 0.009 0.081 0.013 0.084 0.010 0.002-0.004-0.021-0.035-0.053-0.071-0.053-0.059-0.074-0.095-0.092-0.15-0.013-0.043-0.004-0.294 0.010-0.294 0.001 0 0.005-0.018 0.008-0.040 0.006-0.037 0.004-0.040-0.031-0.039-0.021 0.001-0.042 0.004-0.045 0.007zM6.466 8.775c0.292 0.072 0.505 0.27 0.388 0.361-0.049 0.039-0.131 0.045-0.256 0.021-0.157-0.030-0.374-0.143-0.34-0.176 0.005-0.004 0.071-0.008 0.147-0.010 0.113-0.003 0.145-0.006 0.162-0.024 0.029-0.029 0.014-0.043-0.072-0.064-0.15-0.039-0.403-0.036-0.545 0.004-0.050 0.015-0.097 0.051-0.097 0.078 0 0.053 0.209 0.174 0.449 0.261 0.064 0.024 0.117 0.045 0.117 0.049 0 0.012-0.162 0-0.277-0.020-0.059-0.010-0.161-0.035-0.228-0.056-0.193-0.057-0.249-0.047-0.305 0.055-0.026 0.051-0.028 0.061-0.023 0.328 0.011 0.546 0.009 0.681-0.011 0.694-0.045 0.029-0.060 0.015-0.069-0.060-0.009-0.083-0.034-0.283-0.071-0.54-0.031-0.229-0.035-0.568-0.006-0.621 0.044-0.085 0.212-0.196 0.37-0.248 0.189-0.060 0.491-0.075 0.665-0.031zM6.924 9.255c-0.035 0.034-0.14 0.051-0.264 0.045-0.145-0.008-0.127-0.020 0.044-0.031 0.069-0.004 0.146-0.012 0.17-0.017 0.064-0.016 0.071-0.015 0.050 0.004zM5.502 10.322c0 0.036-0.068 0.065-0.184 0.079-0.097 0.010-0.133 0.009-0.117-0.006 0.006-0.005 0.278-0.094 0.292-0.095 0.005 0 0.009 0.010 0.009 0.023z"></path>
      <path d="M11.066 9.393c-0.076 0.020-0.131 0.055-0.205 0.13-0.069 0.070-0.076 0.11-0.020 0.136 0.040 0.020 0.151-0.005 0.345-0.077 0.077-0.029 0.149-0.047 0.185-0.047 0.033 0 0.060-0.006 0.060-0.011 0-0.020-0.174-0.121-0.228-0.134-0.067-0.016-0.067-0.016-0.137 0.004z"></path>
      <path d="M11.368 9.807c-0.143 0.045-0.204 0.116-0.136 0.16 0.049 0.031 0.194 0.049 0.334 0.041 0.097-0.005 0.146-0.002 0.194 0.011 0.035 0.011 0.065 0.018 0.068 0.015s-0.026-0.045-0.065-0.096c-0.054-0.070-0.084-0.097-0.135-0.121-0.074-0.035-0.17-0.039-0.259-0.010z"></path>
      <path d="M4.469 9.941c-0.155 0.065-0.161 0.072-0.063 0.089 0.024 0.005 0.099 0.040 0.167 0.078 0.213 0.121 0.312 0.152 0.354 0.11 0.039-0.039 0.023-0.078-0.079-0.185-0.112-0.116-0.24-0.148-0.379-0.091z"></path>
      <path d="M4.090 10.279c-0.025 0.010-0.062 0.029-0.082 0.044-0.050 0.036-0.15 0.137-0.142 0.146 0.004 0.004 0.033 0.001 0.064-0.004 0.037-0.007 0.088-0.005 0.15 0.006 0.147 0.026 0.351 0.034 0.389 0.014 0.049-0.026 0.048-0.076-0.003-0.115-0.113-0.085-0.282-0.126-0.376-0.091z"></path>
      <path d="M11.265 10.37c-0.019 0.019-0.010 0.064 0.019 0.090 0.045 0.043 0.181 0.089 0.317 0.109 0.088 0.014 0.137 0.030 0.185 0.063 0.025 0.017 0.049 0.031 0.053 0.031 0.010 0-0.043-0.129-0.059-0.146-0.018-0.016-0.394-0.139-0.462-0.149-0.024-0.004-0.048-0.003-0.053 0.002z"></path>
      <path d="M11.183 10.7c-0.065 0.026-0.029 0.141 0.116 0.366 0.038 0.060 0.077 0.139 0.087 0.174 0.019 0.074 0.019 0.074 0.076-0.064 0.019-0.046 0.033-0.105 0.033-0.137 0-0.109-0.083-0.227-0.22-0.319-0.055-0.036-0.052-0.035-0.091-0.020z"></path>
      <path d="M3.991 10.819c-0.063 0.029-0.121 0.089-0.171 0.176-0.024 0.041-0.043 0.080-0.043 0.084s0.024-0.004 0.054-0.016c0.030-0.014 0.101-0.026 0.166-0.031 0.123-0.010 0.271-0.034 0.322-0.054 0.093-0.036 0.091-0.099-0.006-0.141-0.084-0.036-0.257-0.046-0.322-0.018z"></path>
      <path d="M10.778 10.899c-0.044 0.044-0.074 0.117-0.116 0.287-0.028 0.111-0.053 0.184-0.076 0.217-0.019 0.029-0.033 0.054-0.030 0.056 0.010 0.010 0.203-0.080 0.242-0.114 0.078-0.068 0.098-0.123 0.098-0.268 0-0.11-0.004-0.131-0.026-0.162-0.034-0.045-0.059-0.050-0.092-0.018z"></path>
      <path d="M4.306 11.232c-0.154 0.070-0.242 0.185-0.24 0.31 0 0.035 0.011 0.103 0.024 0.151l0.023 0.088 0.033-0.069c0.018-0.037 0.078-0.123 0.133-0.187 0.144-0.168 0.185-0.256 0.142-0.299-0.033-0.033-0.031-0.033-0.115 0.006z"></path>
      <path d="M4.704 11.456c-0.023 0.024-0.054 0.121-0.065 0.206-0.010 0.078 0.021 0.186 0.072 0.242 0.034 0.039 0.21 0.151 0.22 0.141 0.003-0.002-0.006-0.026-0.020-0.054-0.016-0.031-0.031-0.109-0.044-0.217-0.020-0.187-0.033-0.237-0.069-0.297-0.026-0.044-0.062-0.051-0.093-0.021z"></path>
      </symbol>
  </defs>
</svg>